<svg xmlns="http://www.w3.org/2000/svg" xmlns:xlink="http://www.w3.org/1999/xlink" version="1.1" x="0px" y="0px" viewBox="0 0 595.3 1052.375" enable-background="new 0 0 595.3 841.9" xml:space="preserve"><polygon points="465,434 138,434 138.2,369.8 464.8,369.8 "/><path d="M446.4,320.4H156.6c15.3-27,37.9-49.3,65.2-64.2h159.6C408.5,271.1,431.2,293.4,446.4,320.4z"/><path d="M448.8,480c-13.9,26.4-34.8,48.6-60.1,64.2H214.2c-25.3-15.6-46.1-37.8-60.1-64.2H448.8z"/><path d="M446.4,320.4H156.6c15.3-27,37.9-49.3,65.2-64.2h159.6C408.5,271.1,431.2,293.4,446.4,320.4z"/><path d="M448.8,480c-13.9,26.4-34.8,48.6-60.1,64.2H214.2c-25.3-15.6-46.1-37.8-60.1-64.2H448.8z"/><path d="M468,402.4c0,10.8-1,21.3-3,31.6H138c-2-10.2-3-20.8-3-31.6c0-11.2,1.1-22.1,3.2-32.6h326.6  C466.9,380.3,468,391.2,468,402.4z"/><text x="0" y="856.9" fill="#000000" font-size="5px" font-weight="bold" font-family="'Helvetica Neue', Helvetica, Arial-Unicode, Arial, Sans-serif">Created by Jorge Mateo</text><text x="0" y="861.9" fill="#000000" font-size="5px" font-weight="bold" font-family="'Helvetica Neue', Helvetica, Arial-Unicode, Arial, Sans-serif">from the Noun Project</text></svg>